<mxfile host="Electron" modified="2023-04-06T14:08:41.339Z" agent="Mozilla/5.0 (Windows NT 10.0; Win64; x64) AppleWebKit/537.36 (KHTML, like Gecko) draw.io/21.1.2 Chrome/106.0.5249.199 Electron/21.4.3 Safari/537.36" etag="iN_-8Vnq4tyGmdQbXf1V" version="21.1.2" type="device">
  <diagram name="Page-1" id="JYZtlPEOciU9NDTX6iHm">
    <mxGraphModel dx="1276" dy="-173" grid="1" gridSize="10" guides="1" tooltips="1" connect="1" arrows="1" fold="1" page="1" pageScale="1" pageWidth="1169" pageHeight="827" math="0" shadow="0">
      <root>
        <mxCell id="0" />
        <mxCell id="1" parent="0" />
        <mxCell id="p1YtFQewlUw4fPo3v1J8-113" value="&lt;b&gt;&lt;u&gt;Number&lt;/u&gt;&lt;/b&gt;" style="ellipse;whiteSpace=wrap;html=1;" parent="1" vertex="1">
          <mxGeometry x="40" y="860" width="80" height="60" as="geometry" />
        </mxCell>
        <mxCell id="p1YtFQewlUw4fPo3v1J8-114" value="Title" style="ellipse;whiteSpace=wrap;html=1;" parent="1" vertex="1">
          <mxGeometry x="160" y="860" width="80" height="60" as="geometry" />
        </mxCell>
        <mxCell id="p1YtFQewlUw4fPo3v1J8-115" value="Description" style="ellipse;whiteSpace=wrap;html=1;" parent="1" vertex="1">
          <mxGeometry x="280" y="860" width="80" height="60" as="geometry" />
        </mxCell>
        <mxCell id="p1YtFQewlUw4fPo3v1J8-117" value="&#xa;&lt;b style=&quot;border-color: var(--border-color); color: rgb(0, 0, 0); font-family: Helvetica; font-size: 12px; font-style: normal; font-variant-ligatures: normal; font-variant-caps: normal; letter-spacing: normal; orphans: 2; text-align: center; text-indent: 0px; text-transform: none; widows: 2; word-spacing: 0px; -webkit-text-stroke-width: 0px; background-color: rgb(251, 251, 251); text-decoration-thickness: initial; text-decoration-style: initial; text-decoration-color: initial;&quot;&gt;RESEARCH REPORT&lt;/b&gt;&#xa;&#xa;" style="rounded=0;whiteSpace=wrap;html=1;" parent="1" vertex="1">
          <mxGeometry x="120" y="960" width="160" height="120" as="geometry" />
        </mxCell>
        <mxCell id="p1YtFQewlUw4fPo3v1J8-118" value="&lt;b style=&quot;border-color: var(--border-color);&quot;&gt;EMPLOYEE&lt;/b&gt;" style="rounded=0;whiteSpace=wrap;html=1;align=center;" parent="1" vertex="1">
          <mxGeometry x="880" y="960" width="160" height="120" as="geometry" />
        </mxCell>
        <mxCell id="p1YtFQewlUw4fPo3v1J8-119" value="" style="endArrow=none;html=1;rounded=0;entryX=0.5;entryY=1;entryDx=0;entryDy=0;exitX=0;exitY=0;exitDx=0;exitDy=0;" parent="1" source="p1YtFQewlUw4fPo3v1J8-117" target="p1YtFQewlUw4fPo3v1J8-113" edge="1">
          <mxGeometry width="50" height="50" relative="1" as="geometry">
            <mxPoint x="240" y="1130" as="sourcePoint" />
            <mxPoint x="290" y="1080" as="targetPoint" />
          </mxGeometry>
        </mxCell>
        <mxCell id="p1YtFQewlUw4fPo3v1J8-120" value="" style="endArrow=none;html=1;rounded=0;exitX=0.5;exitY=0;exitDx=0;exitDy=0;" parent="1" source="p1YtFQewlUw4fPo3v1J8-117" target="p1YtFQewlUw4fPo3v1J8-114" edge="1">
          <mxGeometry width="50" height="50" relative="1" as="geometry">
            <mxPoint x="130" y="970" as="sourcePoint" />
            <mxPoint x="90" y="930" as="targetPoint" />
          </mxGeometry>
        </mxCell>
        <mxCell id="p1YtFQewlUw4fPo3v1J8-121" value="" style="endArrow=none;html=1;rounded=0;entryX=0.5;entryY=1;entryDx=0;entryDy=0;exitX=1;exitY=0;exitDx=0;exitDy=0;" parent="1" source="p1YtFQewlUw4fPo3v1J8-117" target="p1YtFQewlUw4fPo3v1J8-115" edge="1">
          <mxGeometry width="50" height="50" relative="1" as="geometry">
            <mxPoint x="140" y="980" as="sourcePoint" />
            <mxPoint x="100" y="940" as="targetPoint" />
          </mxGeometry>
        </mxCell>
        <mxCell id="p1YtFQewlUw4fPo3v1J8-122" value="&lt;b&gt;&lt;u&gt;SSN&lt;/u&gt;&lt;/b&gt;" style="ellipse;whiteSpace=wrap;html=1;" parent="1" vertex="1">
          <mxGeometry x="720" y="860" width="80" height="60" as="geometry" />
        </mxCell>
        <mxCell id="p1YtFQewlUw4fPo3v1J8-123" value="Name" style="ellipse;whiteSpace=wrap;html=1;" parent="1" vertex="1">
          <mxGeometry x="840" y="860" width="80" height="60" as="geometry" />
        </mxCell>
        <mxCell id="p1YtFQewlUw4fPo3v1J8-124" value="Age" style="ellipse;whiteSpace=wrap;html=1;" parent="1" vertex="1">
          <mxGeometry x="960" y="860" width="80" height="60" as="geometry" />
        </mxCell>
        <mxCell id="p1YtFQewlUw4fPo3v1J8-125" value="Title" style="ellipse;whiteSpace=wrap;html=1;" parent="1" vertex="1">
          <mxGeometry x="1080" y="860" width="80" height="60" as="geometry" />
        </mxCell>
        <mxCell id="p1YtFQewlUw4fPo3v1J8-127" value="" style="endArrow=none;html=1;rounded=0;exitX=0.5;exitY=1;exitDx=0;exitDy=0;entryX=0.16;entryY=0.01;entryDx=0;entryDy=0;entryPerimeter=0;" parent="1" edge="1">
          <mxGeometry width="50" height="50" relative="1" as="geometry">
            <mxPoint x="760" y="918" as="sourcePoint" />
            <mxPoint x="905.6" y="959.2" as="targetPoint" />
          </mxGeometry>
        </mxCell>
        <mxCell id="p1YtFQewlUw4fPo3v1J8-128" value="" style="endArrow=none;html=1;rounded=0;exitX=0.5;exitY=1;exitDx=0;exitDy=0;entryX=0.294;entryY=0.007;entryDx=0;entryDy=0;entryPerimeter=0;" parent="1" edge="1">
          <mxGeometry width="50" height="50" relative="1" as="geometry">
            <mxPoint x="880" y="919" as="sourcePoint" />
            <mxPoint x="927.0400000000001" y="959.84" as="targetPoint" />
          </mxGeometry>
        </mxCell>
        <mxCell id="p1YtFQewlUw4fPo3v1J8-129" value="" style="endArrow=none;html=1;rounded=0;exitX=0.5;exitY=1;exitDx=0;exitDy=0;entryX=0.75;entryY=0;entryDx=0;entryDy=0;" parent="1" source="p1YtFQewlUw4fPo3v1J8-124" target="p1YtFQewlUw4fPo3v1J8-118" edge="1">
          <mxGeometry width="50" height="50" relative="1" as="geometry">
            <mxPoint x="890" y="930" as="sourcePoint" />
            <mxPoint x="937.04" y="970.84" as="targetPoint" />
          </mxGeometry>
        </mxCell>
        <mxCell id="p1YtFQewlUw4fPo3v1J8-130" value="" style="endArrow=none;html=1;rounded=0;exitX=0.5;exitY=1;exitDx=0;exitDy=0;entryX=1;entryY=0;entryDx=0;entryDy=0;" parent="1" source="p1YtFQewlUw4fPo3v1J8-125" target="p1YtFQewlUw4fPo3v1J8-118" edge="1">
          <mxGeometry width="50" height="50" relative="1" as="geometry">
            <mxPoint x="900" y="940" as="sourcePoint" />
            <mxPoint x="947.04" y="980.84" as="targetPoint" />
          </mxGeometry>
        </mxCell>
        <mxCell id="p1YtFQewlUw4fPo3v1J8-131" value="&lt;b&gt;&lt;u&gt;ID&lt;/u&gt;&lt;/b&gt;" style="ellipse;whiteSpace=wrap;html=1;" parent="1" vertex="1">
          <mxGeometry x="720" y="1580" width="80" height="60" as="geometry" />
        </mxCell>
        <mxCell id="p1YtFQewlUw4fPo3v1J8-132" value="Name" style="ellipse;whiteSpace=wrap;html=1;" parent="1" vertex="1">
          <mxGeometry x="840" y="1580" width="80" height="60" as="geometry" />
        </mxCell>
        <mxCell id="p1YtFQewlUw4fPo3v1J8-133" value="Address" style="ellipse;whiteSpace=wrap;html=1;" parent="1" vertex="1">
          <mxGeometry x="960" y="1580" width="80" height="60" as="geometry" />
        </mxCell>
        <mxCell id="p1YtFQewlUw4fPo3v1J8-134" value="Contact Person" style="ellipse;whiteSpace=wrap;html=1;" parent="1" vertex="1">
          <mxGeometry x="1080" y="1580" width="80" height="60" as="geometry" />
        </mxCell>
        <mxCell id="p1YtFQewlUw4fPo3v1J8-135" value="" style="endArrow=none;html=1;rounded=0;entryX=0;entryY=1;entryDx=0;entryDy=0;exitX=0.5;exitY=0;exitDx=0;exitDy=0;" parent="1" source="p1YtFQewlUw4fPo3v1J8-131" target="p1YtFQewlUw4fPo3v1J8-136" edge="1">
          <mxGeometry width="50" height="50" relative="1" as="geometry">
            <mxPoint x="780" y="1570" as="sourcePoint" />
            <mxPoint x="840" y="1540" as="targetPoint" />
          </mxGeometry>
        </mxCell>
        <mxCell id="p1YtFQewlUw4fPo3v1J8-136" value="&lt;b style=&quot;border-color: var(--border-color);&quot;&gt;AGENT&lt;/b&gt;" style="rounded=0;whiteSpace=wrap;html=1;align=center;" parent="1" vertex="1">
          <mxGeometry x="880" y="1400" width="160" height="120" as="geometry" />
        </mxCell>
        <mxCell id="p1YtFQewlUw4fPo3v1J8-137" value="" style="endArrow=none;html=1;rounded=0;entryX=0.25;entryY=1;entryDx=0;entryDy=0;exitX=0.5;exitY=0;exitDx=0;exitDy=0;" parent="1" source="p1YtFQewlUw4fPo3v1J8-132" target="p1YtFQewlUw4fPo3v1J8-136" edge="1">
          <mxGeometry width="50" height="50" relative="1" as="geometry">
            <mxPoint x="770" y="1590" as="sourcePoint" />
            <mxPoint x="890" y="1530" as="targetPoint" />
          </mxGeometry>
        </mxCell>
        <mxCell id="p1YtFQewlUw4fPo3v1J8-138" value="" style="endArrow=none;html=1;rounded=0;entryX=0.75;entryY=1;entryDx=0;entryDy=0;exitX=0.5;exitY=0;exitDx=0;exitDy=0;" parent="1" source="p1YtFQewlUw4fPo3v1J8-133" target="p1YtFQewlUw4fPo3v1J8-136" edge="1">
          <mxGeometry width="50" height="50" relative="1" as="geometry">
            <mxPoint x="1000" y="1570" as="sourcePoint" />
            <mxPoint x="930" y="1530" as="targetPoint" />
          </mxGeometry>
        </mxCell>
        <mxCell id="p1YtFQewlUw4fPo3v1J8-139" value="" style="endArrow=none;html=1;rounded=0;entryX=1;entryY=1;entryDx=0;entryDy=0;exitX=0.5;exitY=0;exitDx=0;exitDy=0;" parent="1" source="p1YtFQewlUw4fPo3v1J8-134" target="p1YtFQewlUw4fPo3v1J8-136" edge="1">
          <mxGeometry width="50" height="50" relative="1" as="geometry">
            <mxPoint x="900" y="1600" as="sourcePoint" />
            <mxPoint x="940" y="1540" as="targetPoint" />
          </mxGeometry>
        </mxCell>
        <mxCell id="p1YtFQewlUw4fPo3v1J8-140" value="&lt;b style=&quot;border-color: var(--border-color);&quot;&gt;RESEARCH TOPIC&lt;/b&gt;" style="rounded=0;whiteSpace=wrap;html=1;align=center;" parent="1" vertex="1">
          <mxGeometry x="120" y="1400" width="160" height="120" as="geometry" />
        </mxCell>
        <mxCell id="p1YtFQewlUw4fPo3v1J8-141" value="&lt;b&gt;&lt;u&gt;ID topic&lt;/u&gt;&lt;/b&gt;" style="ellipse;whiteSpace=wrap;html=1;" parent="1" vertex="1">
          <mxGeometry y="1560" width="80" height="60" as="geometry" />
        </mxCell>
        <mxCell id="p1YtFQewlUw4fPo3v1J8-142" value="Name" style="ellipse;whiteSpace=wrap;html=1;" parent="1" vertex="1">
          <mxGeometry x="160" y="1560" width="80" height="60" as="geometry" />
        </mxCell>
        <mxCell id="p1YtFQewlUw4fPo3v1J8-143" value="Code" style="ellipse;whiteSpace=wrap;html=1;" parent="1" vertex="1">
          <mxGeometry x="320" y="1560" width="80" height="60" as="geometry" />
        </mxCell>
        <mxCell id="p1YtFQewlUw4fPo3v1J8-144" value="" style="endArrow=none;html=1;rounded=0;entryX=0;entryY=1;entryDx=0;entryDy=0;exitX=0.5;exitY=0;exitDx=0;exitDy=0;" parent="1" source="p1YtFQewlUw4fPo3v1J8-141" target="p1YtFQewlUw4fPo3v1J8-140" edge="1">
          <mxGeometry width="50" height="50" relative="1" as="geometry">
            <mxPoint x="260" y="1500" as="sourcePoint" />
            <mxPoint x="310" y="1450" as="targetPoint" />
          </mxGeometry>
        </mxCell>
        <mxCell id="p1YtFQewlUw4fPo3v1J8-145" value="" style="endArrow=none;html=1;rounded=0;entryX=0.5;entryY=1;entryDx=0;entryDy=0;" parent="1" source="p1YtFQewlUw4fPo3v1J8-142" target="p1YtFQewlUw4fPo3v1J8-140" edge="1">
          <mxGeometry width="50" height="50" relative="1" as="geometry">
            <mxPoint x="50" y="1570" as="sourcePoint" />
            <mxPoint x="130" y="1530" as="targetPoint" />
          </mxGeometry>
        </mxCell>
        <mxCell id="p1YtFQewlUw4fPo3v1J8-146" value="" style="endArrow=none;html=1;rounded=0;entryX=1;entryY=1;entryDx=0;entryDy=0;exitX=0.5;exitY=0;exitDx=0;exitDy=0;" parent="1" source="p1YtFQewlUw4fPo3v1J8-143" target="p1YtFQewlUw4fPo3v1J8-140" edge="1">
          <mxGeometry width="50" height="50" relative="1" as="geometry">
            <mxPoint x="360" y="1550" as="sourcePoint" />
            <mxPoint x="210" y="1530" as="targetPoint" />
          </mxGeometry>
        </mxCell>
        <mxCell id="p1YtFQewlUw4fPo3v1J8-147" value="&lt;b&gt;&lt;u&gt;ID project&lt;/u&gt;&lt;/b&gt;" style="ellipse;whiteSpace=wrap;html=1;" parent="1" vertex="1">
          <mxGeometry x="390" y="1120" width="80" height="60" as="geometry" />
        </mxCell>
        <mxCell id="p1YtFQewlUw4fPo3v1J8-148" value="Code" style="ellipse;whiteSpace=wrap;html=1;" parent="1" vertex="1">
          <mxGeometry x="390" y="1320" width="80" height="60" as="geometry" />
        </mxCell>
        <mxCell id="p1YtFQewlUw4fPo3v1J8-149" value="Name" style="ellipse;whiteSpace=wrap;html=1;" parent="1" vertex="1">
          <mxGeometry x="710" y="1120" width="80" height="60" as="geometry" />
        </mxCell>
        <mxCell id="p1YtFQewlUw4fPo3v1J8-150" value="Description" style="ellipse;whiteSpace=wrap;html=1;" parent="1" vertex="1">
          <mxGeometry x="710" y="1320" width="80" height="60" as="geometry" />
        </mxCell>
        <mxCell id="p1YtFQewlUw4fPo3v1J8-151" value="" style="endArrow=none;html=1;rounded=0;entryX=0;entryY=0;entryDx=0;entryDy=0;exitX=0.959;exitY=0.722;exitDx=0;exitDy=0;exitPerimeter=0;" parent="1" source="p1YtFQewlUw4fPo3v1J8-147" target="p1YtFQewlUw4fPo3v1J8-152" edge="1">
          <mxGeometry width="50" height="50" relative="1" as="geometry">
            <mxPoint x="440" y="1150" as="sourcePoint" />
            <mxPoint x="430" y="1200" as="targetPoint" />
          </mxGeometry>
        </mxCell>
        <mxCell id="p1YtFQewlUw4fPo3v1J8-152" value="&lt;b style=&quot;border-color: var(--border-color);&quot;&gt;RESEARCH PROJECT&lt;/b&gt;" style="rounded=0;whiteSpace=wrap;html=1;" parent="1" vertex="1">
          <mxGeometry x="505" y="1181" width="160" height="120" as="geometry" />
        </mxCell>
        <mxCell id="p1YtFQewlUw4fPo3v1J8-153" value="" style="endArrow=none;html=1;rounded=0;exitX=1;exitY=0.5;exitDx=0;exitDy=0;entryX=0;entryY=1;entryDx=0;entryDy=0;" parent="1" source="p1YtFQewlUw4fPo3v1J8-148" target="p1YtFQewlUw4fPo3v1J8-152" edge="1">
          <mxGeometry width="50" height="50" relative="1" as="geometry">
            <mxPoint x="470" y="1190" as="sourcePoint" />
            <mxPoint x="520" y="1140" as="targetPoint" />
          </mxGeometry>
        </mxCell>
        <mxCell id="p1YtFQewlUw4fPo3v1J8-154" value="" style="endArrow=none;html=1;rounded=0;entryX=0;entryY=0.5;entryDx=0;entryDy=0;exitX=1;exitY=0;exitDx=0;exitDy=0;" parent="1" source="p1YtFQewlUw4fPo3v1J8-152" target="p1YtFQewlUw4fPo3v1J8-149" edge="1">
          <mxGeometry width="50" height="50" relative="1" as="geometry">
            <mxPoint x="660" y="1180" as="sourcePoint" />
            <mxPoint x="515" y="1311" as="targetPoint" />
          </mxGeometry>
        </mxCell>
        <mxCell id="p1YtFQewlUw4fPo3v1J8-155" value="" style="endArrow=none;html=1;rounded=0;exitX=0;exitY=0.5;exitDx=0;exitDy=0;entryX=1;entryY=1;entryDx=0;entryDy=0;" parent="1" source="p1YtFQewlUw4fPo3v1J8-150" target="p1YtFQewlUw4fPo3v1J8-152" edge="1">
          <mxGeometry width="50" height="50" relative="1" as="geometry">
            <mxPoint x="460" y="1370" as="sourcePoint" />
            <mxPoint x="525" y="1321" as="targetPoint" />
          </mxGeometry>
        </mxCell>
        <mxCell id="p1YtFQewlUw4fPo3v1J8-156" value="Addresses" style="rhombus;whiteSpace=wrap;html=1;" parent="1" vertex="1">
          <mxGeometry x="160" y="1200.5" width="80" height="80" as="geometry" />
        </mxCell>
        <mxCell id="p1YtFQewlUw4fPo3v1J8-157" value="" style="endArrow=none;html=1;rounded=0;entryX=0.5;entryY=1;entryDx=0;entryDy=0;exitX=0.5;exitY=0;exitDx=0;exitDy=0;" parent="1" source="p1YtFQewlUw4fPo3v1J8-156" target="p1YtFQewlUw4fPo3v1J8-117" edge="1">
          <mxGeometry width="50" height="50" relative="1" as="geometry">
            <mxPoint x="220" y="1200" as="sourcePoint" />
            <mxPoint x="430" y="1230" as="targetPoint" />
          </mxGeometry>
        </mxCell>
        <mxCell id="p1YtFQewlUw4fPo3v1J8-158" value="" style="endArrow=none;html=1;rounded=0;entryX=0.5;entryY=1;entryDx=0;entryDy=0;" parent="1" source="p1YtFQewlUw4fPo3v1J8-140" target="p1YtFQewlUw4fPo3v1J8-156" edge="1">
          <mxGeometry width="50" height="50" relative="1" as="geometry">
            <mxPoint x="210" y="1210.5" as="sourcePoint" />
            <mxPoint x="210" y="1090" as="targetPoint" />
          </mxGeometry>
        </mxCell>
        <mxCell id="p1YtFQewlUw4fPo3v1J8-159" value="Produces" style="rhombus;whiteSpace=wrap;html=1;" parent="1" vertex="1">
          <mxGeometry x="545" y="980" width="80" height="80" as="geometry" />
        </mxCell>
        <mxCell id="p1YtFQewlUw4fPo3v1J8-160" value="" style="endArrow=none;html=1;rounded=0;entryX=1;entryY=0.5;entryDx=0;entryDy=0;exitX=0;exitY=0.5;exitDx=0;exitDy=0;" parent="1" source="p1YtFQewlUw4fPo3v1J8-159" target="p1YtFQewlUw4fPo3v1J8-117" edge="1">
          <mxGeometry width="50" height="50" relative="1" as="geometry">
            <mxPoint x="380" y="1280" as="sourcePoint" />
            <mxPoint x="430" y="1230" as="targetPoint" />
          </mxGeometry>
        </mxCell>
        <mxCell id="p1YtFQewlUw4fPo3v1J8-161" value="" style="endArrow=none;html=1;rounded=0;entryX=0.5;entryY=0;entryDx=0;entryDy=0;exitX=0.5;exitY=1;exitDx=0;exitDy=0;" parent="1" source="p1YtFQewlUw4fPo3v1J8-159" target="p1YtFQewlUw4fPo3v1J8-152" edge="1">
          <mxGeometry width="50" height="50" relative="1" as="geometry">
            <mxPoint x="555.0000000000002" y="1030" as="sourcePoint" />
            <mxPoint x="290" y="1030" as="targetPoint" />
          </mxGeometry>
        </mxCell>
        <mxCell id="p1YtFQewlUw4fPo3v1J8-162" value="Suppervised" style="rhombus;whiteSpace=wrap;html=1;" parent="1" vertex="1">
          <mxGeometry x="700" y="970" width="80" height="80" as="geometry" />
        </mxCell>
        <mxCell id="p1YtFQewlUw4fPo3v1J8-163" value="" style="endArrow=none;html=1;rounded=0;entryX=0.5;entryY=0;entryDx=0;entryDy=0;exitX=0;exitY=0.25;exitDx=0;exitDy=0;" parent="1" source="p1YtFQewlUw4fPo3v1J8-118" target="p1YtFQewlUw4fPo3v1J8-162" edge="1">
          <mxGeometry width="50" height="50" relative="1" as="geometry">
            <mxPoint x="750" y="950" as="sourcePoint" />
            <mxPoint x="900" y="1130" as="targetPoint" />
            <Array as="points">
              <mxPoint x="880" y="960" />
              <mxPoint x="740" y="960" />
            </Array>
          </mxGeometry>
        </mxCell>
        <mxCell id="p1YtFQewlUw4fPo3v1J8-164" value="" style="endArrow=none;html=1;rounded=0;entryX=0.5;entryY=1;entryDx=0;entryDy=0;exitX=0;exitY=1;exitDx=0;exitDy=0;" parent="1" source="p1YtFQewlUw4fPo3v1J8-118" target="p1YtFQewlUw4fPo3v1J8-162" edge="1">
          <mxGeometry width="50" height="50" relative="1" as="geometry">
            <mxPoint x="890" y="1000" as="sourcePoint" />
            <mxPoint x="750" y="980" as="targetPoint" />
            <Array as="points">
              <mxPoint x="740" y="1080" />
            </Array>
          </mxGeometry>
        </mxCell>
        <mxCell id="p1YtFQewlUw4fPo3v1J8-165" value="Lead&lt;br&gt;Investigator" style="rhombus;whiteSpace=wrap;html=1;" parent="1" vertex="1">
          <mxGeometry x="840" y="1121" width="80" height="80" as="geometry" />
        </mxCell>
        <mxCell id="p1YtFQewlUw4fPo3v1J8-166" value="Work_on" style="rhombus;whiteSpace=wrap;html=1;" parent="1" vertex="1">
          <mxGeometry x="840" y="1240" width="80" height="80" as="geometry" />
        </mxCell>
        <mxCell id="p1YtFQewlUw4fPo3v1J8-167" value="" style="endArrow=none;html=1;rounded=0;entryX=0;entryY=0.5;entryDx=0;entryDy=0;exitX=1;exitY=0.25;exitDx=0;exitDy=0;" parent="1" source="p1YtFQewlUw4fPo3v1J8-152" target="p1YtFQewlUw4fPo3v1J8-165" edge="1">
          <mxGeometry width="50" height="50" relative="1" as="geometry">
            <mxPoint x="670" y="1200" as="sourcePoint" />
            <mxPoint x="820" y="1200" as="targetPoint" />
            <Array as="points">
              <mxPoint x="810" y="1210" />
              <mxPoint x="810" y="1161" />
            </Array>
          </mxGeometry>
        </mxCell>
        <mxCell id="p1YtFQewlUw4fPo3v1J8-168" value="" style="endArrow=none;html=1;rounded=0;exitX=1.001;exitY=0.825;exitDx=0;exitDy=0;entryX=0;entryY=0.5;entryDx=0;entryDy=0;exitPerimeter=0;" parent="1" source="p1YtFQewlUw4fPo3v1J8-152" target="p1YtFQewlUw4fPo3v1J8-166" edge="1">
          <mxGeometry width="50" height="50" relative="1" as="geometry">
            <mxPoint x="710" y="1200" as="sourcePoint" />
            <mxPoint x="760" y="1150" as="targetPoint" />
          </mxGeometry>
        </mxCell>
        <mxCell id="p1YtFQewlUw4fPo3v1J8-169" value="" style="endArrow=none;html=1;rounded=0;entryX=0.25;entryY=1;entryDx=0;entryDy=0;exitX=0.5;exitY=0;exitDx=0;exitDy=0;" parent="1" source="p1YtFQewlUw4fPo3v1J8-165" target="p1YtFQewlUw4fPo3v1J8-118" edge="1">
          <mxGeometry width="50" height="50" relative="1" as="geometry">
            <mxPoint x="880" y="1180" as="sourcePoint" />
            <mxPoint x="930" y="1130" as="targetPoint" />
            <Array as="points">
              <mxPoint x="880" y="1100" />
              <mxPoint x="920" y="1100" />
            </Array>
          </mxGeometry>
        </mxCell>
        <mxCell id="p1YtFQewlUw4fPo3v1J8-170" value="" style="endArrow=none;html=1;rounded=0;entryX=0.75;entryY=1;entryDx=0;entryDy=0;exitX=1;exitY=0.5;exitDx=0;exitDy=0;" parent="1" source="p1YtFQewlUw4fPo3v1J8-166" target="p1YtFQewlUw4fPo3v1J8-118" edge="1">
          <mxGeometry width="50" height="50" relative="1" as="geometry">
            <mxPoint x="880" y="1180" as="sourcePoint" />
            <mxPoint x="1000" y="1090" as="targetPoint" />
            <Array as="points">
              <mxPoint x="1000" y="1280" />
            </Array>
          </mxGeometry>
        </mxCell>
        <mxCell id="p1YtFQewlUw4fPo3v1J8-171" value="On" style="rhombus;whiteSpace=wrap;html=1;" parent="1" vertex="1">
          <mxGeometry x="310" y="1201" width="80" height="80" as="geometry" />
        </mxCell>
        <mxCell id="p1YtFQewlUw4fPo3v1J8-172" value="" style="endArrow=none;html=1;rounded=0;exitX=1;exitY=0.5;exitDx=0;exitDy=0;entryX=0.5;entryY=1;entryDx=0;entryDy=0;" parent="1" source="p1YtFQewlUw4fPo3v1J8-140" target="p1YtFQewlUw4fPo3v1J8-171" edge="1">
          <mxGeometry width="50" height="50" relative="1" as="geometry">
            <mxPoint x="420" y="1400" as="sourcePoint" />
            <mxPoint x="350" y="1460" as="targetPoint" />
            <Array as="points">
              <mxPoint x="350" y="1460" />
            </Array>
          </mxGeometry>
        </mxCell>
        <mxCell id="p1YtFQewlUw4fPo3v1J8-173" value="" style="endArrow=none;html=1;rounded=0;exitX=1;exitY=0.5;exitDx=0;exitDy=0;entryX=0;entryY=0.5;entryDx=0;entryDy=0;" parent="1" source="p1YtFQewlUw4fPo3v1J8-171" target="p1YtFQewlUw4fPo3v1J8-152" edge="1">
          <mxGeometry width="50" height="50" relative="1" as="geometry">
            <mxPoint x="290" y="1470" as="sourcePoint" />
            <mxPoint x="360" y="1291" as="targetPoint" />
            <Array as="points" />
          </mxGeometry>
        </mxCell>
        <mxCell id="p1YtFQewlUw4fPo3v1J8-175" value="Funded_by" style="rhombus;whiteSpace=wrap;html=1;" parent="1" vertex="1">
          <mxGeometry x="545" y="1420" width="80" height="80" as="geometry" />
        </mxCell>
        <mxCell id="p1YtFQewlUw4fPo3v1J8-177" value="Amount" style="ellipse;whiteSpace=wrap;html=1;" parent="1" vertex="1">
          <mxGeometry x="440" y="1510" width="80" height="60" as="geometry" />
        </mxCell>
        <mxCell id="p1YtFQewlUw4fPo3v1J8-178" value="Grant" style="ellipse;whiteSpace=wrap;html=1;" parent="1" vertex="1">
          <mxGeometry x="650" y="1510" width="80" height="60" as="geometry" />
        </mxCell>
        <mxCell id="p1YtFQewlUw4fPo3v1J8-179" value="" style="endArrow=none;html=1;rounded=0;entryX=0.5;entryY=1;entryDx=0;entryDy=0;exitX=0.5;exitY=0;exitDx=0;exitDy=0;" parent="1" source="p1YtFQewlUw4fPo3v1J8-175" target="p1YtFQewlUw4fPo3v1J8-152" edge="1">
          <mxGeometry width="50" height="50" relative="1" as="geometry">
            <mxPoint x="600" y="1470" as="sourcePoint" />
            <mxPoint x="650" y="1420" as="targetPoint" />
          </mxGeometry>
        </mxCell>
        <mxCell id="p1YtFQewlUw4fPo3v1J8-180" value="" style="endArrow=none;html=1;rounded=0;entryX=0;entryY=0.5;entryDx=0;entryDy=0;exitX=1;exitY=0.5;exitDx=0;exitDy=0;" parent="1" source="p1YtFQewlUw4fPo3v1J8-175" target="p1YtFQewlUw4fPo3v1J8-136" edge="1">
          <mxGeometry width="50" height="50" relative="1" as="geometry">
            <mxPoint x="595" y="1430" as="sourcePoint" />
            <mxPoint x="595" y="1311" as="targetPoint" />
          </mxGeometry>
        </mxCell>
        <mxCell id="p1YtFQewlUw4fPo3v1J8-181" value="" style="endArrow=none;html=1;rounded=0;entryX=0;entryY=1;entryDx=0;entryDy=0;exitX=0.5;exitY=0;exitDx=0;exitDy=0;" parent="1" source="p1YtFQewlUw4fPo3v1J8-177" target="p1YtFQewlUw4fPo3v1J8-175" edge="1">
          <mxGeometry width="50" height="50" relative="1" as="geometry">
            <mxPoint x="600" y="1470" as="sourcePoint" />
            <mxPoint x="650" y="1420" as="targetPoint" />
          </mxGeometry>
        </mxCell>
        <mxCell id="p1YtFQewlUw4fPo3v1J8-182" value="" style="endArrow=none;html=1;rounded=0;entryX=1;entryY=1;entryDx=0;entryDy=0;exitX=0.5;exitY=0;exitDx=0;exitDy=0;" parent="1" source="p1YtFQewlUw4fPo3v1J8-178" target="p1YtFQewlUw4fPo3v1J8-175" edge="1">
          <mxGeometry width="50" height="50" relative="1" as="geometry">
            <mxPoint x="510" y="1520" as="sourcePoint" />
            <mxPoint x="575" y="1490" as="targetPoint" />
          </mxGeometry>
        </mxCell>
        <mxCell id="p1YtFQewlUw4fPo3v1J8-183" value="N" style="text;html=1;strokeColor=none;fillColor=none;align=center;verticalAlign=middle;whiteSpace=wrap;rounded=0;" parent="1" vertex="1">
          <mxGeometry x="485" y="990" width="60" height="30" as="geometry" />
        </mxCell>
        <mxCell id="p1YtFQewlUw4fPo3v1J8-184" value="N" style="text;html=1;strokeColor=none;fillColor=none;align=center;verticalAlign=middle;whiteSpace=wrap;rounded=0;" parent="1" vertex="1">
          <mxGeometry x="525" y="1060" width="60" height="30" as="geometry" />
        </mxCell>
        <mxCell id="p1YtFQewlUw4fPo3v1J8-185" value="Date" style="ellipse;whiteSpace=wrap;html=1;" parent="1" vertex="1">
          <mxGeometry x="545" y="1510" width="80" height="60" as="geometry" />
        </mxCell>
        <mxCell id="p1YtFQewlUw4fPo3v1J8-189" value="" style="endArrow=none;html=1;rounded=0;entryX=0.5;entryY=1;entryDx=0;entryDy=0;" parent="1" source="p1YtFQewlUw4fPo3v1J8-185" target="p1YtFQewlUw4fPo3v1J8-175" edge="1">
          <mxGeometry width="50" height="50" relative="1" as="geometry">
            <mxPoint x="500" y="1550" as="sourcePoint" />
            <mxPoint x="550" y="1500" as="targetPoint" />
          </mxGeometry>
        </mxCell>
        <mxCell id="p1YtFQewlUw4fPo3v1J8-190" value="N" style="text;html=1;strokeColor=none;fillColor=none;align=center;verticalAlign=middle;whiteSpace=wrap;rounded=0;" parent="1" vertex="1">
          <mxGeometry x="140" y="1170.5" width="60" height="30" as="geometry" />
        </mxCell>
        <mxCell id="p1YtFQewlUw4fPo3v1J8-191" value="N" style="text;html=1;strokeColor=none;fillColor=none;align=center;verticalAlign=middle;whiteSpace=wrap;rounded=0;" parent="1" vertex="1">
          <mxGeometry x="140" y="1280.5" width="60" height="30" as="geometry" />
        </mxCell>
        <mxCell id="p1YtFQewlUw4fPo3v1J8-192" value="N" style="text;html=1;strokeColor=none;fillColor=none;align=center;verticalAlign=middle;whiteSpace=wrap;rounded=0;" parent="1" vertex="1">
          <mxGeometry x="390" y="1210" width="60" height="30" as="geometry" />
        </mxCell>
        <mxCell id="p1YtFQewlUw4fPo3v1J8-193" value="N" style="text;html=1;strokeColor=none;fillColor=none;align=center;verticalAlign=middle;whiteSpace=wrap;rounded=0;" parent="1" vertex="1">
          <mxGeometry x="350" y="1280.5" width="60" height="30" as="geometry" />
        </mxCell>
        <mxCell id="p1YtFQewlUw4fPo3v1J8-194" value="N" style="text;html=1;strokeColor=none;fillColor=none;align=center;verticalAlign=middle;whiteSpace=wrap;rounded=0;" parent="1" vertex="1">
          <mxGeometry x="740" y="960" width="60" height="30" as="geometry" />
        </mxCell>
        <mxCell id="p1YtFQewlUw4fPo3v1J8-195" value="1" style="text;html=1;strokeColor=none;fillColor=none;align=center;verticalAlign=middle;whiteSpace=wrap;rounded=0;" parent="1" vertex="1">
          <mxGeometry x="740" y="1050" width="60" height="30" as="geometry" />
        </mxCell>
        <mxCell id="p1YtFQewlUw4fPo3v1J8-196" value="1" style="text;html=1;strokeColor=none;fillColor=none;align=center;verticalAlign=middle;whiteSpace=wrap;rounded=0;" parent="1" vertex="1">
          <mxGeometry x="880" y="1100" width="60" height="30" as="geometry" />
        </mxCell>
        <mxCell id="p1YtFQewlUw4fPo3v1J8-197" value="N" style="text;html=1;strokeColor=none;fillColor=none;align=center;verticalAlign=middle;whiteSpace=wrap;rounded=0;" parent="1" vertex="1">
          <mxGeometry x="800" y="1160" width="60" height="30" as="geometry" />
        </mxCell>
        <mxCell id="p1YtFQewlUw4fPo3v1J8-198" value="N" style="text;html=1;strokeColor=none;fillColor=none;align=center;verticalAlign=middle;whiteSpace=wrap;rounded=0;" parent="1" vertex="1">
          <mxGeometry x="780" y="1250.5" width="60" height="30" as="geometry" />
        </mxCell>
        <mxCell id="p1YtFQewlUw4fPo3v1J8-199" value="N" style="text;html=1;strokeColor=none;fillColor=none;align=center;verticalAlign=middle;whiteSpace=wrap;rounded=0;" parent="1" vertex="1">
          <mxGeometry x="920" y="1251" width="60" height="30" as="geometry" />
        </mxCell>
        <mxCell id="p1YtFQewlUw4fPo3v1J8-200" value="N" style="text;html=1;strokeColor=none;fillColor=none;align=center;verticalAlign=middle;whiteSpace=wrap;rounded=0;" parent="1" vertex="1">
          <mxGeometry x="585" y="1390" width="60" height="30" as="geometry" />
        </mxCell>
        <mxCell id="p1YtFQewlUw4fPo3v1J8-201" value="N" style="text;html=1;strokeColor=none;fillColor=none;align=center;verticalAlign=middle;whiteSpace=wrap;rounded=0;" parent="1" vertex="1">
          <mxGeometry x="625" y="1430" width="60" height="30" as="geometry" />
        </mxCell>
        <mxCell id="6QsOGleQ0Ns9SZyARHZU-1" value="&lt;div style=&quot;text-align: left; font-size: 15px;&quot;&gt;&lt;span style=&quot;background-color: initial;&quot;&gt;&lt;font style=&quot;font-size: 15px;&quot;&gt;Trương Văn Khải - 21520274&lt;/font&gt;&lt;/span&gt;&lt;/div&gt;&lt;div style=&quot;text-align: left; font-size: 15px;&quot;&gt;&lt;span style=&quot;background-color: initial;&quot;&gt;&lt;font style=&quot;font-size: 15px;&quot;&gt;Lê Yến Nhi - 21522427&lt;/font&gt;&lt;/span&gt;&lt;/div&gt;&lt;div style=&quot;text-align: left; font-size: 15px;&quot;&gt;&lt;span style=&quot;background-color: initial;&quot;&gt;&lt;font style=&quot;font-size: 15px;&quot;&gt;Ngô Phúc Danh - 21521924&lt;/font&gt;&lt;/span&gt;&lt;/div&gt;&lt;div style=&quot;text-align: left; font-size: 15px;&quot;&gt;&lt;span style=&quot;background-color: initial;&quot;&gt;&lt;font style=&quot;font-size: 15px;&quot;&gt;Lê Ngô Minh Đức - 21520195&lt;/font&gt;&lt;/span&gt;&lt;/div&gt;" style="text;html=1;strokeColor=none;fillColor=none;align=center;verticalAlign=middle;whiteSpace=wrap;rounded=0;" vertex="1" parent="1">
          <mxGeometry x="385" y="850" width="280" height="80" as="geometry" />
        </mxCell>
      </root>
    </mxGraphModel>
  </diagram>
</mxfile>
